<svg xmlns="http://www.w3.org/2000/svg" xmlns:xlink="http://www.w3.org/1999/xlink" width="2000" zoomAndPan="magnify" viewBox="0 0 1500 1499.999933" height="2000" preserveAspectRatio="xMidYMid meet" version="1.0"><defs><clipPath id="522eedf071"><path d="M 75 6.222656 L 893 6.222656 L 893 1500 L 75 1500 Z M 75 6.222656 " clip-rule="nonzero"/></clipPath></defs><g clip-path="url(#522eedf071)"><path fill="#2b79c2" d="M 643.296875 736.949219 C 643.296875 757.910156 648.628906 778.871094 659.996094 798.414062 L 892.003906 1195.988281 L 892.003906 1321.40625 C 892.003906 1419.464844 812.417969 1499.050781 714.355469 1499.050781 L 252.476562 1499.050781 C 154.414062 1499.050781 74.828125 1419.464844 74.828125 1321.40625 L 74.828125 184.46875 C 74.828125 86.40625 154.414062 6.820312 252.476562 6.820312 L 714.355469 6.820312 C 812.417969 6.820312 892.003906 86.40625 892.003906 184.46875 L 892.003906 682.945312 L 842.617188 642.441406 C 800.339844 607.976562 740.292969 605.488281 695.527344 636.753906 C 661.773438 660.558594 643.296875 698.222656 643.296875 736.949219 Z M 643.296875 736.949219 " fill-opacity="1" fill-rule="nonzero"/></g><path fill="#38b6ff" d="M 536.710938 131.171875 C 536.710938 132.917969 536.625 134.660156 536.453125 136.398438 C 536.28125 138.132812 536.027344 139.859375 535.6875 141.570312 C 535.347656 143.28125 534.921875 144.972656 534.414062 146.644531 C 533.910156 148.3125 533.320312 149.957031 532.652344 151.566406 C 531.984375 153.179688 531.242188 154.757812 530.417969 156.296875 C 529.59375 157.835938 528.699219 159.332031 527.730469 160.78125 C 526.757812 162.234375 525.71875 163.632812 524.613281 164.984375 C 523.507812 166.332031 522.335938 167.625 521.101562 168.859375 C 519.867188 170.09375 518.574219 171.261719 517.226562 172.371094 C 515.875 173.476562 514.476562 174.515625 513.023438 175.484375 C 511.574219 176.457031 510.078125 177.351562 508.539062 178.175781 C 507 178.996094 505.421875 179.742188 503.8125 180.410156 C 502.199219 181.078125 500.558594 181.664062 498.886719 182.171875 C 497.214844 182.679688 495.527344 183.101562 493.8125 183.441406 C 492.101562 183.785156 490.378906 184.039062 488.640625 184.210938 C 486.902344 184.382812 485.160156 184.46875 483.417969 184.46875 C 481.671875 184.46875 479.929688 184.382812 478.191406 184.210938 C 476.457031 184.039062 474.730469 183.785156 473.019531 183.441406 C 471.308594 183.101562 469.617188 182.679688 467.945312 182.171875 C 466.277344 181.664062 464.632812 181.078125 463.023438 180.410156 C 461.410156 179.742188 459.832031 178.996094 458.292969 178.175781 C 456.753906 177.351562 455.257812 176.457031 453.808594 175.484375 C 452.355469 174.515625 450.957031 173.476562 449.605469 172.371094 C 448.257812 171.261719 446.964844 170.09375 445.730469 168.859375 C 444.496094 167.625 443.328125 166.332031 442.21875 164.984375 C 441.113281 163.632812 440.074219 162.234375 439.105469 160.78125 C 438.132812 159.332031 437.238281 157.835938 436.414062 156.296875 C 435.59375 154.757812 434.847656 153.179688 434.179688 151.566406 C 433.511719 149.957031 432.925781 148.3125 432.417969 146.644531 C 431.910156 144.972656 431.488281 143.28125 431.144531 141.570312 C 430.804688 139.859375 430.550781 138.132812 430.378906 136.398438 C 430.207031 134.660156 430.121094 132.917969 430.121094 131.171875 C 430.121094 129.429688 430.207031 127.6875 430.378906 125.949219 C 430.550781 124.210938 430.804688 122.488281 431.144531 120.777344 C 431.488281 119.0625 431.910156 117.375 432.417969 115.703125 C 432.925781 114.03125 433.511719 112.390625 434.179688 110.777344 C 434.847656 109.167969 435.59375 107.589844 436.414062 106.050781 C 437.238281 104.511719 438.132812 103.015625 439.105469 101.566406 C 440.074219 100.113281 441.113281 98.714844 442.21875 97.363281 C 443.328125 96.015625 444.496094 94.722656 445.730469 93.488281 C 446.964844 92.253906 448.257812 91.082031 449.605469 89.976562 C 450.957031 88.871094 452.355469 87.832031 453.808594 86.859375 C 455.257812 85.890625 456.753906 84.996094 458.292969 84.171875 C 459.832031 83.347656 461.410156 82.605469 463.023438 81.9375 C 464.632812 81.269531 466.277344 80.679688 467.945312 80.175781 C 469.617188 79.667969 471.308594 79.242188 473.019531 78.902344 C 474.730469 78.5625 476.457031 78.308594 478.191406 78.136719 C 479.929688 77.964844 481.671875 77.878906 483.417969 77.878906 C 485.160156 77.878906 486.902344 77.964844 488.640625 78.136719 C 490.378906 78.308594 492.101562 78.5625 493.8125 78.902344 C 495.527344 79.242188 497.214844 79.667969 498.886719 80.175781 C 500.558594 80.679688 502.199219 81.269531 503.8125 81.9375 C 505.421875 82.605469 507 83.347656 508.539062 84.171875 C 510.078125 84.996094 511.574219 85.890625 513.023438 86.859375 C 514.476562 87.832031 515.875 88.871094 517.226562 89.976562 C 518.574219 91.082031 519.867188 92.253906 521.101562 93.488281 C 522.335938 94.722656 523.507812 96.015625 524.613281 97.363281 C 525.71875 98.714844 526.757812 100.113281 527.730469 101.566406 C 528.699219 103.015625 529.59375 104.511719 530.417969 106.050781 C 531.242188 107.589844 531.984375 109.167969 532.652344 110.777344 C 533.320312 112.390625 533.910156 114.03125 534.414062 115.703125 C 534.921875 117.375 535.347656 119.0625 535.6875 120.777344 C 536.027344 122.488281 536.28125 124.210938 536.453125 125.949219 C 536.625 127.6875 536.710938 129.429688 536.710938 131.171875 Z M 536.710938 131.171875 " fill-opacity="1" fill-rule="nonzero"/><path fill="#38b6ff" d="M 1389.414062 1037.171875 C 1374.421875 1037.171875 1360.492188 1027.613281 1355.625 1012.585938 L 1270.996094 750.945312 C 1268.683594 743.769531 1264.28125 737.625 1258.167969 733.21875 C 1208.25 697.046875 1039.484375 577.707031 978.339844 534.359375 C 962.351562 523.027344 958.550781 500.855469 969.882812 484.832031 C 981.21875 468.808594 1003.316406 464.9375 1019.304688 476.304688 C 1063.824219 507.890625 1178.652344 588.933594 1241.894531 634.125 C 1297.960938 674.167969 1338.855469 730.054688 1360.101562 795.714844 L 1423.167969 990.734375 C 1429.207031 1009.386719 1418.972656 1029.425781 1400.285156 1035.464844 C 1396.699219 1036.601562 1393.039062 1037.171875 1389.414062 1037.171875 Z M 1389.414062 1037.171875 " fill-opacity="1" fill-rule="nonzero"/><path fill="#38b6ff" d="M 1389.414062 1499.050781 L 1293.058594 1499.050781 C 1129.445312 1499.050781 976.597656 1411.257812 894.136719 1269.957031 L 629.371094 816.25 C 588.371094 745.9375 608.480469 654.378906 675.132812 607.761719 C 732.546875 567.507812 810.785156 570.421875 865.179688 614.90625 L 1126.390625 828.613281 C 1141.597656 841.085938 1143.835938 863.433594 1131.4375 878.601562 C 1118.964844 893.84375 1096.652344 896.011719 1081.445312 883.648438 L 820.234375 669.941406 C 790.390625 645.496094 747.46875 643.96875 715.882812 665.996094 C 679.289062 691.613281 668.238281 741.886719 690.765625 780.472656 L 955.496094 1234.179688 C 1025.273438 1353.703125 1154.636719 1427.992188 1293.058594 1427.992188 L 1389.414062 1427.992188 C 1409.0625 1427.992188 1424.941406 1443.875 1424.941406 1463.523438 C 1424.941406 1483.171875 1409.0625 1499.050781 1389.414062 1499.050781 Z M 1389.414062 1499.050781 " fill-opacity="1" fill-rule="nonzero"/><path fill="#38b6ff" d="M 359.0625 1108.230469 C 349.96875 1108.230469 340.871094 1104.746094 333.945312 1097.820312 L 227.355469 991.230469 C 213.464844 977.339844 213.464844 954.886719 227.355469 940.992188 C 241.25 927.101562 263.703125 927.101562 277.59375 940.992188 L 359.0625 1022.460938 L 440.53125 940.992188 C 454.425781 927.101562 476.878906 927.101562 490.769531 940.992188 C 504.664062 954.886719 504.664062 977.339844 490.769531 991.230469 L 384.183594 1097.820312 C 377.253906 1104.746094 368.160156 1108.230469 359.0625 1108.230469 Z M 359.0625 1108.230469 " fill-opacity="1" fill-rule="nonzero"/><path fill="#38b6ff" d="M 465.652344 539.761719 C 456.554688 539.761719 447.460938 536.277344 440.53125 529.351562 L 359.0625 447.882812 L 277.59375 529.351562 C 263.703125 543.242188 241.25 543.242188 227.355469 529.351562 C 213.464844 515.457031 213.464844 493.003906 227.355469 479.113281 L 333.945312 372.523438 C 347.835938 358.632812 370.292969 358.632812 384.183594 372.523438 L 490.769531 479.113281 C 504.664062 493.003906 504.664062 515.457031 490.769531 529.351562 C 483.84375 536.277344 474.746094 539.761719 465.652344 539.761719 Z M 465.652344 539.761719 " fill-opacity="1" fill-rule="nonzero"/><path fill="#38b6ff" d="M 359.0625 1097.570312 C 339.417969 1097.570312 323.535156 1081.6875 323.535156 1062.042969 L 323.535156 433.171875 C 323.535156 413.523438 339.417969 397.644531 359.0625 397.644531 C 378.710938 397.644531 394.59375 413.523438 394.59375 433.171875 L 394.59375 1062.042969 C 394.59375 1081.6875 378.710938 1097.570312 359.0625 1097.570312 Z M 359.0625 1097.570312 " fill-opacity="1" fill-rule="nonzero"/></svg>