<svg xmlns="http://www.w3.org/2000/svg" xmlns:xlink="http://www.w3.org/1999/xlink" width="2000" zoomAndPan="magnify" viewBox="0 0 1500 1499.999933" height="2000" preserveAspectRatio="xMidYMid meet" version="1.0"><defs><clipPath id="40c3623b82"><path d="M 0 150 L 1500 150 L 1500 1428.75 L 0 1428.75 Z M 0 150 " clip-rule="nonzero"/></clipPath></defs><g clip-path="url(#40c3623b82)"><path fill="#2b79c2" d="M 1470.734375 279.25 L 986.128906 150.609375 C 982.523438 149.664062 978.671875 149.816406 975.15625 151.101562 L 512.496094 319.316406 L 52.859375 156.386719 C 47.453125 154.460938 41.460938 155.195312 36.695312 158.34375 C 31.894531 161.492188 28.839844 166.6875 28.441406 172.402344 C 3.074219 536.007812 -4.839844 905.117188 4.9375 1269.488281 C 5.152344 1277.339844 10.347656 1284.1875 17.835938 1286.511719 L 432.144531 1414.933594 C 435.476562 1418.847656 440.429688 1421.382812 445.992188 1421.414062 C 446.050781 1421.414062 446.082031 1421.414062 446.144531 1421.414062 C 451.769531 1421.414062 456.78125 1418.878906 460.140625 1414.90625 L 928.882812 1238.648438 C 956.757812 1248.949219 1071 1291.125 1185.308594 1332.660156 C 1429.105469 1421.230469 1457.195312 1428.78125 1465.539062 1428.78125 C 1466.394531 1428.78125 1467.035156 1428.6875 1467.707031 1428.628906 C 1476.664062 1427.527344 1483.476562 1420.101562 1483.8125 1411.085938 C 1500.042969 967.402344 1508.785156 676.140625 1484.363281 295.785156 C 1483.8125 287.929688 1478.34375 281.265625 1470.734375 279.25 Z M 518.851562 356.054688 L 964.183594 194.132812 C 961.527344 454.527344 946.121094 726.8125 930.199219 992.464844 C 920.539062 993.6875 913.449219 1002.277344 914.214844 1012.054688 C 914.855469 1020.125 920.601562 1026.480469 928.027344 1028.347656 C 927.480469 1037.421875 926.929688 1046.5 926.378906 1055.578125 C 923.445312 1104.355469 920.539062 1152.796875 917.699219 1200.78125 C 917.636719 1201.730469 917.699219 1202.675781 917.757812 1203.625 L 464.726562 1373.980469 C 467.964844 1085.894531 485.417969 784.117188 502.347656 491.96875 C 504.976562 446.671875 507.574219 401.683594 510.113281 357.003906 C 513.078125 357.339844 516.070312 357.0625 518.851562 356.054688 Z M 63.375 199.023438 L 474.140625 344.65625 C 471.417969 392.667969 468.609375 441.082031 465.796875 489.828125 C 463.808594 523.96875 461.824219 558.226562 459.867188 592.582031 C 438.65625 596.09375 420.105469 601.320312 404.730469 608.105469 C 395.472656 612.203125 391.285156 623.019531 395.347656 632.28125 C 398.375 639.128906 405.097656 643.222656 412.128906 643.222656 C 414.601562 643.222656 417.109375 642.734375 419.523438 641.664062 C 430.007812 637.050781 443.058594 633.167969 457.695312 630.265625 C 443.578125 878.953125 430.769531 1131.832031 428.050781 1375.296875 L 41.246094 1255.367188 C 32.230469 904.476562 39.6875 549.304688 63.375 199.023438 Z M 1447.964844 1386.695312 C 1375.988281 1363.558594 1129.773438 1273.796875 953.121094 1208.484375 C 953.792969 1206.742188 954.222656 1204.878906 954.34375 1202.921875 C 957.15625 1154.9375 960.089844 1106.527344 963.023438 1057.777344 C 963.664062 1047.171875 964.308594 1036.535156 964.949219 1025.902344 C 973.199219 1024.953125 981.484375 1023.914062 989.828125 1022.722656 C 999.851562 1021.285156 1006.820312 1012.023438 1005.414062 1002 C 1003.976562 991.976562 994.6875 985.007812 984.691406 986.414062 C 978.855469 987.238281 973.015625 988.003906 967.210938 988.707031 C 983.074219 723.816406 998.324219 452.417969 1000.921875 192.480469 L 1448.605469 311.339844 C 1471.40625 676.933594 1463.429688 962.085938 1447.964844 1386.695312 Z M 1447.964844 1386.695312 " fill-opacity="1" fill-rule="nonzero"/></g><path fill="#2b79c2" d="M 693.273438 727.515625 C 692.234375 740.109375 688.445312 753.953125 682.027344 768.652344 C 681.171875 770.609375 680.316406 772.566406 679.523438 774.519531 C 675.578125 783.84375 679.949219 794.601562 689.273438 798.542969 C 691.59375 799.523438 694.007812 799.980469 696.394531 799.980469 C 703.542969 799.980469 710.328125 795.761719 713.292969 788.765625 C 714.058594 786.960938 714.820312 785.125 715.648438 783.292969 C 723.683594 764.925781 728.453125 747.167969 729.859375 730.542969 C 730.714844 720.457031 723.195312 711.59375 713.109375 710.738281 C 702.933594 709.910156 694.132812 717.398438 693.273438 727.515625 Z M 693.273438 727.515625 " fill-opacity="1" fill-rule="nonzero"/><path fill="#2b79c2" d="M 713.90625 947.78125 C 707 940.386719 695.382812 939.988281 687.988281 946.894531 C 680.589844 953.804688 680.195312 965.417969 687.101562 972.8125 C 700.335938 986.996094 717.601562 998.761719 738.355469 1007.777344 C 740.738281 1008.816406 743.214844 1009.304688 745.660156 1009.304688 C 752.75 1009.304688 759.472656 1005.179688 762.5 998.273438 C 766.535156 988.980469 762.253906 978.191406 752.996094 974.15625 C 736.828125 967.128906 723.683594 958.265625 713.90625 947.78125 Z M 713.90625 947.78125 " fill-opacity="1" fill-rule="nonzero"/><path fill="#2b79c2" d="M 691.410156 897.996094 C 690.800781 893.167969 690.492188 888.03125 690.492188 882.773438 C 690.492188 872.382812 691.6875 861.074219 694.039062 849.15625 C 695.996094 839.222656 689.546875 829.566406 679.613281 827.609375 C 669.679688 825.652344 660.023438 832.101562 658.066406 842.035156 C 655.253906 856.277344 653.820312 870 653.820312 882.773438 C 653.820312 889.558594 654.214844 896.191406 655.011719 902.519531 C 656.171875 911.808594 664.058594 918.59375 673.195312 918.59375 C 673.960938 918.59375 674.722656 918.535156 675.488281 918.441406 C 685.511719 917.21875 692.664062 908.050781 691.410156 897.996094 Z M 691.410156 897.996094 " fill-opacity="1" fill-rule="nonzero"/><path fill="#2b79c2" d="M 807.792969 1026.480469 C 825.335938 1029.046875 844.53125 1030.578125 864.886719 1031.003906 C 865.039062 1031.003906 865.160156 1031.003906 865.3125 1031.003906 C 875.246094 1031.003906 883.40625 1023.058594 883.652344 1013.066406 C 883.867188 1002.949219 875.859375 994.542969 865.742188 994.328125 C 846.882812 993.902344 829.1875 992.496094 813.144531 990.171875 C 803.117188 988.707031 793.796875 995.644531 792.359375 1005.667969 C 790.832031 1015.722656 797.769531 1025.015625 807.792969 1026.480469 Z M 807.792969 1026.480469 " fill-opacity="1" fill-rule="nonzero"/><path fill="#2b79c2" d="M 531.535156 624.519531 C 549.476562 625.039062 566.929688 626.871094 583.402344 629.929688 C 584.53125 630.140625 585.664062 630.234375 586.792969 630.234375 C 595.445312 630.234375 603.144531 624.058594 604.796875 615.257812 C 606.660156 605.292969 600.089844 595.730469 590.125 593.863281 C 571.789062 590.441406 552.441406 588.425781 532.605469 587.84375 C 522.398438 587.628906 514.023438 595.515625 513.75 605.632812 C 513.445312 615.777344 521.421875 624.214844 531.535156 624.519531 Z M 531.535156 624.519531 " fill-opacity="1" fill-rule="nonzero"/><path fill="#2b79c2" d="M 642.328125 648.816406 C 658.160156 656.792969 670.507812 666.390625 679.0625 677.332031 C 682.671875 681.976562 688.078125 684.390625 693.519531 684.390625 C 697.460938 684.390625 701.4375 683.109375 704.796875 680.511719 C 712.773438 674.273438 714.210938 662.753906 707.976562 654.777344 C 696.054688 639.523438 679.523438 626.503906 658.832031 616.054688 C 649.785156 611.5 638.75 615.136719 634.199219 624.183594 C 629.644531 633.230469 633.28125 644.261719 642.328125 648.816406 Z M 642.328125 648.816406 " fill-opacity="1" fill-rule="nonzero"/><path fill="#2b79c2" d="M 1138.730469 569.566406 C 1081.269531 586.652344 1034.875 637.964844 1020.605469 700.285156 C 1008.59375 752.609375 1018.097656 812.878906 1047.347656 869.96875 C 1074.394531 922.75 1114.675781 967.800781 1150.496094 1004.902344 C 1153.949219 1008.480469 1158.6875 1010.496094 1163.667969 1010.496094 C 1163.667969 1010.496094 1163.667969 1010.496094 1163.699219 1010.496094 C 1168.648438 1010.496094 1173.417969 1008.480469 1176.871094 1004.933594 C 1226.964844 953.253906 1379.441406 796.007812 1310.980469 645.332031 C 1285.675781 589.738281 1218.40625 545.878906 1138.730469 569.566406 Z M 1163.699219 965.601562 C 1133.410156 933.296875 1101.6875 895.582031 1079.988281 853.25 C 1054.652344 803.800781 1046.246094 752.394531 1056.332031 708.476562 C 1067.730469 658.839844 1104.164062 618.101562 1149.179688 604.714844 C 1160.640625 601.320312 1171.738281 599.761719 1182.3125 599.761719 C 1226.871094 599.761719 1262.476562 627.269531 1277.574219 660.523438 C 1315.289062 743.5 1278.035156 843.410156 1163.699219 965.601562 Z M 1163.699219 965.601562 " fill-opacity="1" fill-rule="nonzero"/><path fill="#2b79c2" d="M 1223.296875 654.195312 C 1207.648438 642.765625 1186.925781 638.121094 1166.417969 641.480469 C 1145.910156 644.84375 1127.757812 655.816406 1116.539062 671.648438 C 1089.890625 709.300781 1095.484375 747.105469 1131.882812 775.4375 C 1144.535156 785.28125 1160.796875 790.566406 1177.667969 790.566406 C 1181.210938 790.566406 1184.789062 790.324219 1188.332031 789.863281 C 1208.933594 787.144531 1227.421875 776.691406 1239.097656 761.195312 C 1250.773438 745.699219 1255.722656 725.070312 1252.667969 704.5 C 1249.671875 683.964844 1238.945312 665.625 1223.296875 654.195312 Z M 1209.847656 739.128906 C 1204.042969 746.832031 1194.476562 752.058594 1183.566406 753.492188 C 1172.625 754.929688 1162.019531 752.394531 1154.4375 746.464844 C 1133.6875 730.328125 1131.300781 714.28125 1146.492188 692.828125 C 1152.054688 684.972656 1161.46875 679.441406 1172.347656 677.667969 C 1174.792969 677.269531 1177.207031 677.085938 1179.621094 677.085938 C 1187.875 677.085938 1195.667969 679.410156 1201.6875 683.839844 C 1209.453125 689.527344 1214.859375 699.03125 1216.449219 709.910156 C 1218.039062 720.792969 1215.625 731.425781 1209.847656 739.128906 Z M 1209.847656 739.128906 " fill-opacity="1" fill-rule="nonzero"/><path fill="#2b79c2" d="M 383.613281 409.140625 C 358.335938 353.546875 291.066406 309.660156 211.390625 333.378906 C 153.933594 350.460938 107.539062 401.777344 93.265625 464.0625 C 81.253906 516.386719 90.757812 576.65625 120.007812 633.75 C 147.054688 686.53125 187.335938 731.582031 223.15625 768.683594 C 226.609375 772.261719 231.347656 774.277344 236.332031 774.277344 C 236.332031 774.277344 236.332031 774.277344 236.359375 774.277344 C 241.3125 774.277344 246.078125 772.261719 249.535156 768.714844 C 299.59375 717.0625 452.074219 559.816406 383.613281 409.140625 Z M 236.328125 729.378906 C 206.042969 697.074219 174.316406 659.359375 152.617188 617.03125 C 127.28125 567.582031 118.878906 516.171875 128.960938 472.253906 C 140.363281 422.621094 176.792969 381.878906 221.8125 368.492188 C 233.273438 365.101562 244.367188 363.542969 254.941406 363.542969 C 299.472656 363.542969 335.109375 391.050781 350.207031 424.300781 C 387.921875 507.28125 350.664062 607.191406 236.328125 729.378906 Z M 236.328125 729.378906 " fill-opacity="1" fill-rule="nonzero"/><path fill="#2b79c2" d="M 295.925781 417.976562 C 280.28125 406.542969 259.527344 401.898438 239.050781 405.261719 C 218.542969 408.621094 200.386719 419.59375 189.171875 435.425781 C 162.519531 473.078125 168.113281 510.886719 204.515625 539.21875 C 217.167969 549.058594 233.425781 554.347656 250.296875 554.347656 C 253.84375 554.347656 257.417969 554.101562 260.964844 553.644531 C 281.5625 550.921875 300.054688 540.472656 311.730469 524.976562 C 323.402344 509.511719 328.355469 488.851562 325.296875 468.28125 C 322.304688 447.773438 311.574219 429.40625 295.925781 417.976562 Z M 282.480469 502.910156 C 276.671875 510.609375 267.105469 515.835938 256.195312 517.273438 C 245.285156 518.742188 234.679688 516.171875 227.070312 510.246094 C 206.316406 494.105469 203.933594 478.0625 219.125 456.605469 C 224.6875 448.75 234.097656 443.21875 244.980469 441.449219 C 247.425781 441.050781 249.839844 440.867188 252.253906 440.867188 C 260.503906 440.867188 268.296875 443.1875 274.320312 447.621094 C 282.082031 453.304688 287.492188 462.8125 289.082031 473.691406 C 290.671875 484.570312 288.285156 495.207031 282.480469 502.910156 Z M 282.480469 502.910156 " fill-opacity="1" fill-rule="nonzero"/></svg>