<svg xmlns="http://www.w3.org/2000/svg" xmlns:xlink="http://www.w3.org/1999/xlink" width="2000" zoomAndPan="magnify" viewBox="0 0 1500 1499.999933" height="2000" preserveAspectRatio="xMidYMid meet" version="1.0"><defs><clipPath id="999406ed8c"><path d="M 0 79.6875 L 1500 79.6875 L 1500 1420.6875 L 0 1420.6875 Z M 0 79.6875 " clip-rule="nonzero"/></clipPath></defs><path fill="#2b79c2" d="M 1164.292969 753.246094 C 1145.046875 691.222656 1088.632812 647.007812 1023.558594 644.6875 C 872.136719 643.492188 636.144531 644.59375 482.574219 644.320312 C 401.632812 644.304688 333.429688 707.480469 328.144531 788.378906 C 327.867188 793.167969 327.453125 802.863281 327.617188 807.644531 C 327.679688 850.617188 327.355469 921.539062 327.492188 964.398438 C 327.445312 977.070312 327.398438 991.105469 329.714844 1003.628906 C 330.472656 1009.695312 332.851562 1018.3125 334.449219 1024.265625 C 337.757812 1033.953125 341.980469 1044.539062 346.988281 1053.429688 C 369.292969 1093.613281 410.066406 1122.925781 455.441406 1130.511719 C 468.089844 1132.839844 482.128906 1133.054688 494.914062 1132.839844 L 529.746094 1132.640625 C 607.519531 1132.199219 730.652344 1130.855469 808.421875 1129.8125 C 878.246094 1129.339844 947.917969 1123.277344 1017.425781 1116.710938 C 1075.953125 1125.601562 1131.023438 1093.191406 1155.691406 1038.25 C 1159.84375 1029.078125 1163 1018.714844 1165.414062 1008.917969 C 1166.335938 1004.050781 1167.160156 998.558594 1167.957031 993.640625 C 1168.488281 986.714844 1169.066406 976.429688 1169.039062 969.476562 C 1169.546875 922.636719 1170.667969 850.664062 1170.875 804.015625 C 1170.929688 794.417969 1170.625 783.214844 1168.890625 773.722656 C 1168.144531 767.691406 1165.882812 759.179688 1164.292969 753.246094 Z M 1030.308594 888.558594 C 1035.859375 902.972656 1038.351562 920.027344 1034.746094 935.636719 C 1028.058594 959.125 1014.84375 979.527344 993.898438 994.054688 C 967.988281 1012.347656 930.972656 1012.726562 904.597656 994.957031 C 846.441406 955.875 838.078125 869.441406 874.316406 812.914062 C 900.597656 772.074219 951.628906 754.96875 993.765625 783.273438 C 1017.5 799.300781 1031.316406 824.347656 1037.289062 850.832031 C 1040.371094 863.945312 1038.816406 877.460938 1029.886719 888.558594 C 1029.886719 888.558594 1030.308594 888.558594 1030.308594 888.558594 Z M 453.9375 932.414062 C 452.023438 918.046875 454.265625 903.132812 459.351562 890.128906 C 459.351562 890.128906 459.777344 890.128906 459.777344 890.128906 C 450.84375 879.03125 449.289062 865.511719 452.371094 852.402344 C 458.347656 825.914062 472.15625 800.878906 495.894531 784.84375 C 538.015625 756.546875 589.070312 773.640625 615.34375 814.484375 C 651.589844 871.007812 643.210938 957.445312 585.066406 996.527344 C 558.675781 1014.28125 521.6875 1013.933594 495.765625 995.625 C 473.683594 980.148438 459.34375 957.898438 453.9375 932.414062 Z M 453.9375 932.414062 " fill-opacity="1" fill-rule="nonzero"/><g clip-path="url(#999406ed8c)"><path fill="#2b79c2" d="M 1499.980469 898.421875 C 1499.980469 898.421875 1499.640625 829.347656 1499.640625 829.347656 C 1499.585938 824.152344 1499.828125 816.246094 1499.449219 811.113281 C 1498.464844 775.253906 1482.457031 740.09375 1456.179688 715.707031 C 1436.660156 697.203125 1411.03125 684.730469 1384.355469 681.046875 C 1384.375 680.96875 1384.398438 680.890625 1384.414062 680.8125 C 1386.03125 673.925781 1386.292969 663.167969 1386.9375 656.195312 C 1391.613281 591.566406 1388.199219 524.125 1389.105469 459.230469 C 1389.285156 426.382812 1389.015625 393.558594 1386.820312 360.75 C 1385.957031 353.617188 1386.074219 346.167969 1385.378906 338.902344 C 1388.164062 338.894531 1390.722656 338.882812 1392.890625 338.875 C 1428.277344 340.160156 1458.535156 311.054688 1458.242188 275.621094 C 1458.273438 249.933594 1458.375 183.003906 1458.316406 158.167969 C 1458.214844 149.882812 1458.570312 146.035156 1458.035156 136.167969 C 1456.007812 113.234375 1440.449219 92.3125 1418.976562 83.992188 C 1409.6875 80.21875 1399.558594 79.230469 1389.636719 79.753906 C 1376.585938 80.054688 1363.535156 80.625 1350.484375 81.046875 C 1341.265625 81.683594 1325.21875 81.492188 1316.359375 83.664062 C 1300.933594 87.265625 1286.113281 97.761719 1280.742188 112.8125 C 1276.964844 122.402344 1277.195312 133.414062 1282.074219 141.847656 L 1281.648438 141.847656 C 1277.089844 154.898438 1273.226562 167.949219 1270.691406 181 C 1268.105469 192.335938 1268.53125 208.53125 1267.652344 220.148438 C 1266.941406 241.425781 1265.601562 259.464844 1265.992188 281.28125 C 1267.789062 310.394531 1292.203125 335.613281 1321.226562 338.613281 C 1323.835938 338.945312 1326.644531 338.96875 1329.269531 339.042969 C 1331.910156 339.039062 1335.085938 339.03125 1338.570312 339.023438 C 1333.679688 394.230469 1334.714844 453.039062 1334.804688 508.472656 C 1334.597656 557.730469 1333.152344 607.007812 1336.863281 656.195312 C 1337.308594 664.332031 1337.832031 672.648438 1339.492188 680.636719 C 1331.886719 681.039062 1307.160156 682.339844 1307.160156 682.339844 C 1303.351562 682.546875 1299.671875 683.007812 1296.085938 683.734375 C 1293.441406 662.289062 1289.222656 641.035156 1283.085938 620.421875 C 1239.898438 468.199219 1103.089844 349.492188 946.203125 328.476562 C 934.824219 326.847656 921.011719 325.558594 909.609375 324.851562 C 894.402344 324.003906 848.433594 324.265625 832.5625 324.246094 C 816.046875 324.785156 592.390625 323.015625 583.199219 325.398438 C 553.992188 327.464844 524.503906 332.515625 496.4375 340.898438 C 340.390625 385.527344 223.535156 523.898438 203.238281 683.617188 C 190.777344 681.402344 171.378906 681.488281 160.636719 680.714844 C 162.230469 673.824219 162.496094 663.136719 163.136719 656.195312 C 167.816406 591.566406 164.398438 524.125 165.304688 459.230469 C 165.484375 426.382812 165.214844 393.558594 163.023438 360.75 C 162.164062 353.65625 162.273438 346.25 161.589844 339.023438 C 164.1875 339.027344 165.835938 339.03125 165.835938 339.03125 C 175.898438 339.371094 186.171875 338.265625 195.492188 334.25 C 216.972656 325.5 232.414062 304.371094 234.007812 281.28125 C 234.457031 271.4375 233.910156 267.511719 233.800781 259.300781 C 233.292969 240.429688 232.308594 219.542969 231.453125 200.574219 C 230.886719 180.363281 224.910156 161.242188 218.351562 141.847656 C 229.953125 116.113281 210.90625 89.800781 183.640625 83.664062 C 179 82.535156 173.859375 82.152344 169.089844 81.941406 C 148.203125 80.992188 125.664062 80.039062 104.859375 79.628906 C 73.082031 78.6875 44.519531 104.503906 41.964844 136.167969 C 41.296875 152.1875 41.851562 181.449219 41.660156 197.320312 C 41.660156 197.320312 41.757812 275.621094 41.757812 275.621094 C 41.542969 298.648438 55.03125 321.089844 75.585938 331.632812 C 83.210938 335.617188 91.730469 338.082031 100.316406 338.660156 C 102.816406 338.855469 108.929688 338.898438 114.78125 338.910156 C 109.875 394.152344 110.914062 453 111.003906 508.472656 C 110.796875 557.730469 109.351562 607.007812 113.0625 656.195312 C 113.515625 664.472656 114.046875 672.9375 115.777344 681.046875 C 49.585938 690.042969 -0.0507812 749.703125 0.335938 816.394531 C 0.472656 824.199219 -0.00390625 889.054688 0.0195312 898.421875 L -0.015625 933.222656 C 0.0273438 947.574219 2.777344 961.886719 7.285156 975.511719 C 9.632812 982.535156 13.722656 990.984375 17.238281 997.554688 C 20.402344 1002.621094 23.890625 1008.476562 27.757812 1013.0625 C 52.597656 1044.410156 98.125 1072.730469 138.101562 1053.539062 C 147.328125 1048.914062 146.902344 1036.410156 138.101562 1031.53125 C 121.566406 1020.066406 103.503906 1013.628906 88.105469 1001.300781 C 74.65625 990.164062 64.101562 974.984375 59.097656 958.242188 C 53.4375 942.792969 55.246094 914.75 54.886719 898.421875 C 54.820312 889.375 54.519531 823.828125 54.570312 816.394531 C 54.417969 774.734375 86.238281 738.898438 127.167969 732.453125 C 135.429688 730.90625 149.5 730.746094 158.300781 730.347656 C 158.300781 730.347656 192.839844 728.53125 192.839844 728.53125 C 195.367188 728.394531 197.867188 728.117188 200.347656 727.75 C 199.007812 821.894531 200.292969 917.488281 200.230469 1011.40625 C 198.023438 1189.742188 325.269531 1357.609375 497.054688 1404.445312 C 534.472656 1415.304688 573.53125 1420.441406 612.433594 1420.078125 C 630.78125 1419.746094 649.101562 1419.113281 667.4375 1418.527344 C 740.804688 1416.058594 814.132812 1412.09375 887.421875 1407.613281 C 1092.640625 1430.601562 1274.957031 1255.441406 1295.859375 1055.429688 C 1297.496094 1041.5625 1298.191406 1025.53125 1298.539062 1011.554688 C 1298.722656 975.472656 1299.417969 777.03125 1299.46875 736.5625 C 1299.453125 733.589844 1299.355469 730.613281 1299.28125 727.636719 C 1312.746094 729.585938 1332.378906 729.519531 1341.699219 730.347656 C 1341.699219 730.347656 1358.964844 731.035156 1358.964844 731.035156 C 1404.007812 731.546875 1444.089844 767.308594 1445.238281 813.054688 C 1445.585938 817.402344 1445.386719 824.960938 1445.449219 829.347656 L 1445.113281 898.421875 C 1445.113281 898.421875 1444.972656 932.695312 1444.972656 932.695312 C 1444.621094 950.164062 1439.539062 967.214844 1429.640625 981.683594 C 1414.105469 1006.921875 1385.65625 1015.625 1361.898438 1031.53125 C 1359.691406 1033.023438 1357.5 1034.78125 1356.332031 1037.328125 C 1348.574219 1056.292969 1379.6875 1060.40625 1392.375 1059.714844 C 1423.898438 1057.773438 1453.046875 1037.273438 1472.242188 1013.0625 C 1476.121094 1008.507812 1479.585938 1002.597656 1482.761719 997.554688 C 1486.195312 990.980469 1490.457031 982.570312 1492.714844 975.511719 C 1497.222656 961.886719 1499.972656 947.574219 1500.015625 933.222656 Z M 1246.46875 1024.375 C 1246.25 1036.742188 1245.015625 1050.40625 1243.398438 1062.742188 C 1228.449219 1180.75 1150.398438 1286.214844 1043.992188 1338.792969 C 995.234375 1363.804688 941.652344 1378.511719 887.421875 1386.027344 C 796.933594 1379.253906 703.882812 1375.613281 612.449219 1373.132812 C 578.191406 1372.183594 543.636719 1367.667969 510.835938 1357.492188 C 369.894531 1316.433594 263.890625 1183.402344 255.46875 1036.972656 C 254.710938 1029.8125 254.800781 1018.621094 254.527344 1011.410156 C 254.746094 920.402344 255.105469 827.589844 254.855469 736.4375 C 254.984375 719.867188 256.171875 701.910156 258.507812 685.5 C 279.300781 530.710938 406.804688 403.097656 561.59375 382.167969 C 562.808594 382.003906 564.089844 381.855469 565.332031 381.695312 C 566.621094 399.273438 572.175781 417.382812 576.449219 434.117188 C 585.199219 466.492188 593.8125 499.050781 604.339844 530.890625 C 618.34375 567.585938 656.597656 592.527344 695.765625 591.089844 C 722.230469 590.996094 762.867188 590.707031 789.445312 590.894531 C 795.4375 590.867188 804.21875 591.023438 810.125 590.808594 C 849.570312 590.015625 886.230469 561.988281 897.628906 524.273438 C 898.539062 521.140625 901.003906 513.261719 901.917969 510.003906 C 909.496094 484.824219 916.566406 459.484375 923.464844 434.089844 C 926.09375 422.445312 934.285156 396.960938 936.105469 381.851562 C 936.90625 381.964844 937.75 382.058594 938.53125 382.179688 C 1112.171875 405.320312 1246.859375 561.59375 1245.777344 736.5625 C 1245.742188 786.0625 1246.890625 978.292969 1246.46875 1024.375 Z M 1246.46875 1024.375 " fill-opacity="1" fill-rule="nonzero"/></g></svg>